<?xml version="1.0" encoding="UTF-8" standalone="no"?>
<!-- Created with Inkscape (http://www.inkscape.org/) -->

<svg
   width="77.997955mm"
   height="89.091187mm"
   viewBox="0 0 77.997955 89.091187"
   version="1.1"
   id="svg1"
   xmlns="http://www.w3.org/2000/svg"
   xmlns:svg="http://www.w3.org/2000/svg">
  <defs
     id="defs1" />
  <g
     id="layer1"
     transform="translate(-42.631707,-117.23735)">
    <path
       style="display:none;fill:none;fill-opacity:1;stroke:#000000;stroke-width:0.430722;stroke-dasharray:none;stroke-opacity:1"
       d="m 54.138356,201.73761 17.173415,-10.03942 17.320508,10 10.000001,-17.32051 19.89232,0.10768 -0.10768,-19.89231 -17.28109,-9.85291 10.03941,-17.17341 -10,-17.32051 -17.320505,10 0.10768,19.89232 -19.892319,-0.10768 -10,17.32051 -9.892323,17.21282 z"
       id="path1" />
    <path
       style="fill:none;fill-opacity:1;stroke:#000000;stroke-width:0.529167;stroke-dasharray:none;stroke-opacity:1"
       d="M 111.17524,137.56673 83.854733,130.24622"
       id="path28" />
    <path
       style="fill:none;fill-opacity:1;stroke:#000000;stroke-width:0.529167;stroke-dasharray:none;stroke-opacity:1"
       d="M 118.41692,164.59305 98.632279,184.37768"
       id="path29" />
    <path
       style="fill:none;fill-opacity:1;stroke:#000000;stroke-width:0.529167;stroke-dasharray:none;stroke-opacity:1"
       d="m 71.311769,191.69819 27.32051,-7.32051"
       id="path30" />
    <path
       style="fill:none;fill-opacity:1;stroke:#000000;stroke-width:0.529167;stroke-dasharray:none;stroke-opacity:1"
       d="m 44.177772,184.56419 27.133997,7.134"
       id="path31" />
    <path
       style="fill:none;fill-opacity:1;stroke:#000000;stroke-width:0.529167;stroke-dasharray:none;stroke-opacity:1"
       d="m 71.498282,177.24368 27.133997,7.134"
       id="path32" />
    <path
       style="fill:none;fill-opacity:1;stroke:#000000;stroke-width:0.529167;stroke-dasharray:none;stroke-opacity:1"
       d="m 44.177772,184.56419 27.32051,-7.32051"
       id="path33" />
    <path
       style="fill:none;fill-opacity:1;stroke:#000000;stroke-width:0.529167;stroke-dasharray:none;stroke-opacity:1"
       d="m 64.070094,150.03086 7.428188,27.21282"
       id="path34" />
    <path
       style="display:inline;fill:none;fill-opacity:1;stroke:#000000;stroke-width:0.529167;stroke-dasharray:none;stroke-opacity:1"
       d="m 118.43663,164.66659 c -5.35268,-21.47408 -22.52383,-13.31324 -17.3008,-9.92645 -3.38679,5.22303 -11.54763,-11.94812 10.01971,-17.24696 6.14089,-21.27344 -12.810181,-22.79152 -9.9803,-17.24696 5.54456,-2.82988 4.02648,16.12119 -17.320507,10 -15.97461,15.42643 -0.32153,26.21668 0.05384,19.94615 6.270536,0.26769 -4.519715,15.92077 -19.892311,-0.10768 -21.493793,5.31855 -13.332957,22.48972 -9.946163,17.26668 3.386794,-5.22305 11.54763,11.94812 -9.96587,17.19311 -6.087059,21.21961 12.864021,22.7377 10.034131,17.19313 -5.544567,2.82989 -4.02648,-16.12119 17.24696,-10.01971 5.29884,21.52792 22.470003,13.36708 17.246963,9.98029 -3.38679,5.22304 -11.547627,-11.94812 10,-17.32051 15.426437,15.9746 26.216677,0.32153 19.892317,0.10768 -0.42921,6.32437 -16.08228,-4.46587 -0.088,-19.81877 z"
       id="path18" />
  </g>
</svg>
